<?xml version="1.0" standalone="no"?>
<!DOCTYPE svg PUBLIC "-//W3C//DTD SVG 20010904//EN"
 "http://www.w3.org/TR/2001/REC-SVG-20010904/DTD/svg10.dtd">
<svg version="1.0" xmlns="http://www.w3.org/2000/svg"
 width="389.000000pt" height="400.000000pt" viewBox="0 0 389.000000 400.000000"
 preserveAspectRatio="xMidYMid meet">

<g transform="translate(0.000000,400.000000) scale(0.100000,-0.100000)"
fill="#000000" stroke="none">
<path d="M170 2000 l0 -1770 1775 0 1775 0 0 1770 0 1770 -1775 0 -1775 0 0
-1770z m3350 0 l0 -1580 -1577 2 -1578 3 -3 1578 -2 1577 1580 0 1580 0 0
-1580z"/>
<path d="M1890 2740 l0 -710 -695 0 -695 0 0 -40 0 -40 693 -2 692 -3 3 -708
2 -707 40 0 40 0 0 710 0 710 725 0 725 0 0 40 0 40 -725 0 -725 0 0 710 0
710 -40 0 -40 0 0 -710z"/>
<path d="M1070 3140 l0 -220 -195 0 -195 0 0 -75 0 -75 195 0 195 0 0 -310 0
-310 75 0 75 0 0 310 0 310 215 0 216 0 -3 73 -3 72 -212 3 -213 2 0 220 0
220 -75 0 -75 0 0 -220z"/>
<path d="M2231 3272 c-35 -128 -42 -320 -16 -430 27 -116 88 -204 184 -268 23
-14 39 -30 36 -34 -2 -4 -49 -38 -104 -76 -55 -38 -97 -71 -95 -74 3 -3 103
-51 222 -107 l217 -102 45 78 45 79 75 4 c121 8 213 66 266 170 27 53 31 97
20 220 -11 114 -4 146 45 202 23 26 40 48 38 49 -2 1 -20 11 -39 21 -19 11
-52 34 -72 52 -81 72 -166 91 -242 55 -48 -24 -86 -82 -86 -134 0 -15 -2 -27
-4 -27 -2 0 -24 11 -49 25 -24 14 -87 35 -138 46 -157 34 -219 79 -284 209
-19 38 -39 71 -44 75 -6 3 -15 -12 -20 -33z m83 -256 c23 -36 128 -83 234
-106 51 -11 112 -28 135 -38 46 -21 96 -70 119 -116 l15 -29 19 28 c15 24 19
48 19 128 1 99 1 99 33 128 44 40 79 38 135 -8 45 -37 46 -38 28 -58 -33 -36
-44 -92 -36 -169 14 -118 11 -177 -13 -222 -49 -95 -151 -143 -248 -115 -29 8
-31 6 -78 -65 l-48 -73 -101 51 c-56 27 -103 52 -105 53 -2 2 53 44 123 93 69
50 122 92 118 95 -4 2 -28 7 -53 11 -175 25 -299 172 -324 384 -7 57 2 66 28
28z"/>
<path d="M2671 1738 c-52 -71 -93 -142 -132 -230 -17 -40 -33 -75 -35 -77 -2
-2 -21 12 -42 31 -59 54 -126 96 -199 128 -37 15 -69 27 -71 26 -1 -2 36 -145
83 -318 47 -174 85 -319 85 -322 0 -4 161 -5 357 -4 l357 3 86 320 c48 176 86
321 85 323 -7 9 -178 -82 -224 -119 -29 -24 -61 -50 -71 -57 -15 -11 -24 1
-83 120 -58 119 -129 226 -149 228 -4 0 -25 -24 -47 -52z m97 -205 c22 -49 57
-140 77 -203 l36 -115 104 105 c57 57 107 102 110 98 5 -5 -66 -224 -100 -310
-7 -17 -29 -18 -279 -18 l-271 0 -57 167 c-32 91 -56 169 -53 171 3 3 53 -43
111 -102 59 -59 107 -106 108 -104 2 2 19 55 39 118 38 119 110 280 125 280 5
0 27 -39 50 -87z"/>
<path d="M650 1653 c0 -49 30 -155 57 -206 16 -28 73 -92 135 -153 184 -176
192 -238 55 -451 l-47 -73 290 0 291 0 -12 21 c-6 12 -30 51 -54 88 -78 120
-90 194 -45 279 10 21 60 75 111 122 135 123 183 210 203 363 l5 37 -495 0
-494 0 0 -27z m840 -75 c-1 -39 -49 -107 -138 -195 -128 -128 -166 -200 -166
-313 0 -59 6 -87 27 -132 l26 -58 -96 0 c-87 0 -95 2 -88 18 38 91 47 131 43
193 -5 100 -49 179 -150 274 -101 95 -116 114 -139 176 l-19 49 350 0 c273 0
350 -3 350 -12z"/>
<path d="M2360 825 l0 -55 350 0 350 0 0 55 0 55 -350 0 -350 0 0 -55z"/>
</g>
</svg>
