<?xml version="1.0" standalone="no"?>
<!DOCTYPE svg PUBLIC "-//W3C//DTD SVG 20010904//EN"
 "http://www.w3.org/TR/2001/REC-SVG-20010904/DTD/svg10.dtd">
<svg version="1.0" xmlns="http://www.w3.org/2000/svg"
 width="1772.000000pt" height="530.000000pt" viewBox="0 0 1772.000000 530.000000"
 preserveAspectRatio="xMidYMid meet">

<g transform="translate(0.000000,530.000000) scale(0.100000,-0.100000)"
fill="#000000" stroke="none">
<path d="M1094 3510 c-184 -28 -355 -147 -428 -296 -56 -115 -61 -152 -61
-494 0 -269 3 -324 17 -378 30 -106 68 -172 144 -248 136 -137 326 -196 521
-161 45 9 108 27 139 41 31 14 61 26 67 26 7 0 40 -28 74 -62 l63 -63 82 83
83 82 -64 64 -64 65 30 68 c54 120 58 150 58 483 0 258 -3 316 -18 374 -47
185 -182 328 -369 390 -82 27 -197 38 -274 26z m175 -296 c69 -20 124 -75 146
-146 20 -61 33 -413 20 -542 -9 -98 -21 -104 -84 -42 l-47 46 -82 -83 -82 -83
60 -59 c33 -33 60 -65 60 -71 0 -27 -91 -32 -168 -9 -141 42 -172 130 -172
495 0 231 13 340 46 397 56 96 177 135 303 97z"/>
<path d="M10554 3481 c-174 -28 -341 -143 -417 -289 -60 -114 -70 -188 -70
-502 0 -314 10 -388 70 -502 97 -186 339 -314 553 -293 165 16 269 64 381 175
132 131 161 224 163 520 l1 195 -300 0 -300 0 -3 -132 -3 -133 147 0 147 0 -5
-75 c-10 -150 -92 -244 -227 -261 -125 -16 -221 29 -268 123 l-28 58 0 320 c0
369 3 385 81 454 65 57 151 74 254 50 85 -19 136 -70 171 -169 l16 -45 160 -3
161 -2 -9 40 c-16 70 -57 169 -94 225 -73 109 -207 203 -335 233 -66 16 -187
22 -246 13z"/>
<path d="M1940 2932 c0 -458 3 -558 15 -607 77 -302 382 -480 698 -409 213 49
355 177 423 384 17 50 19 106 22 618 l3 562 -160 0 -160 0 -3 -553 -3 -553
-30 -59 c-42 -82 -97 -116 -200 -123 -100 -6 -157 11 -211 62 -74 72 -74 72
-74 688 l0 538 -160 0 -160 0 0 -548z"/>
<path d="M11414 3466 c-3 -8 -4 -259 -1 -558 3 -462 6 -551 20 -597 46 -152
147 -275 281 -341 183 -91 376 -92 556 -3 95 46 194 142 239 231 61 121 61
122 61 729 l0 553 -160 0 -160 0 0 -546 c0 -402 -3 -558 -12 -588 -18 -58 -90
-128 -151 -145 -59 -17 -180 -10 -223 12 -47 24 -92 76 -109 125 -13 39 -15
126 -15 594 l0 548 -160 0 c-129 0 -162 -3 -166 -14z"/>
<path d="M3402 2696 c-155 -425 -282 -776 -282 -780 0 -3 73 -6 163 -6 l162 0
46 133 46 132 273 0 273 0 45 -132 44 -133 164 0 164 0 -32 88 c-17 48 -145
398 -284 777 l-252 690 -124 3 -124 3 -282 -775z m502 26 c42 -125 76 -237 76
-250 0 -22 0 -22 -170 -22 -158 0 -170 1 -170 18 0 10 36 121 80 247 44 126
80 230 80 232 0 1 6 3 14 3 10 0 39 -74 90 -228z"/>
<path d="M4630 2690 l0 -780 333 0 c373 0 412 5 529 67 140 73 233 204 264
372 23 123 16 660 -10 741 -46 142 -133 250 -254 313 -117 62 -156 67 -529 67
l-333 0 0 -780z m666 475 c57 -23 111 -81 131 -139 16 -44 18 -89 18 -331 0
-323 -7 -363 -72 -427 -60 -59 -97 -69 -270 -75 l-153 -6 0 503 0 503 153 -6
c109 -4 165 -10 193 -22z"/>
<path d="M5930 2690 l0 -780 160 0 160 0 0 305 0 305 106 0 106 0 149 -305
149 -305 180 0 c99 0 180 2 180 4 0 2 -74 147 -165 322 -91 176 -165 326 -165
334 0 8 21 26 48 40 61 32 143 115 172 174 133 276 -16 593 -316 670 -51 13
-125 16 -413 16 l-351 0 0 -780z m700 478 c53 -22 97 -79 105 -133 11 -71 -2
-131 -38 -172 -50 -57 -75 -63 -272 -63 l-175 0 0 188 c0 104 3 192 8 196 13
15 334 1 372 -16z"/>
<path d="M7475 2703 c-153 -422 -280 -774 -283 -780 -3 -10 33 -13 159 -13
l164 0 46 133 46 132 273 0 273 0 45 -132 44 -133 164 0 164 0 -32 88 c-17 48
-145 398 -284 777 l-252 690 -124 3 -124 3 -279 -768z m499 19 c42 -125 76
-237 76 -250 0 -22 0 -22 -170 -22 -155 0 -170 2 -170 18 0 9 36 120 80 246
44 127 80 231 80 233 0 2 6 3 14 3 10 0 39 -74 90 -228z"/>
<path d="M8700 2690 l0 -780 160 0 160 0 0 451 c0 356 3 450 13 447 6 -3 142
-206 300 -451 l289 -447 139 0 139 0 0 780 0 780 -160 0 -160 0 0 -450 c0
-356 -3 -448 -12 -444 -7 3 -141 205 -298 449 l-285 444 -142 0 -143 1 0 -780z"/>
<path d="M12760 2690 l0 -780 515 0 516 0 -3 143 -3 142 -352 3 -353 2 0 635
0 635 -160 0 -160 0 0 -780z"/>
<path d="M14175 2703 c-153 -422 -280 -774 -283 -780 -3 -10 33 -13 160 -13
l163 0 46 133 46 132 273 0 273 0 45 -132 44 -133 164 0 c90 0 164 1 164 3 0
1 -128 351 -284 777 l-283 775 -125 3 -124 3 -279 -768z m504 4 c45 -133 81
-245 81 -250 0 -4 -79 -7 -175 -7 -160 0 -175 1 -175 18 0 9 36 120 80 246 44
125 80 230 80 232 0 2 6 4 14 4 10 0 40 -78 95 -243z"/>
<path d="M15360 2690 l0 -780 160 0 160 0 0 305 0 305 103 0 104 0 148 -305
149 -305 182 0 182 0 -169 326 c-93 179 -169 331 -169 338 0 6 18 19 40 29 71
33 146 111 187 195 38 75 38 77 38 197 0 118 -1 121 -38 199 -63 133 -174 222
-323 261 -47 12 -128 15 -406 15 l-348 0 0 -780z m695 471 c48 -22 69 -44 90
-94 28 -66 13 -158 -33 -211 -41 -46 -87 -56 -264 -56 l-168 0 0 190 0 190
168 0 c141 0 173 -3 207 -19z"/>
</g>
</svg>
